<svg id="Layer_1" data-name="Layer 1" xmlns="http://www.w3.org/2000/svg" viewBox="0 0 1126.11 806.86" style="" class=""><defs><style>.cls-1,.cls-3{fill:none;}.cls-1,.cls-3,.cls-4,.cls-5{stroke:#fff;stroke-width:10px;}.cls-1,.cls-5{stroke-linecap:round;}.cls-1,.cls-4,.cls-5{stroke-linejoin:round;}.cls-2{fill:#fff;}.cls-3{stroke-miterlimit:10;}.cls-4,.cls-5{fill:aqua;}</style></defs><path class="cls-1 eanXDrHd_0" d="M452,461.08S543.17,288.07,572.08,35c28.85,253.35,117,426.13,117,426.13"></path><path class="cls-2 eanXDrHd_1" d="M494.77,132.59C452.26,157.82,359,149.37,359,149.37s37.29-85.91,79.8-111.14,105,1.5,105,1.5S537.29,107.36,494.77,132.59Z"></path><path class="cls-3 eanXDrHd_2" d="M656.41,483a206.51,206.51,0,0,1,37.39,5.75C799.63,465.7,876,508.74,876,609.32S794.4,787.53,693.8,787.53,511.64,709.92,511.64,609.32"></path><path class="cls-3 eanXDrHd_3" d="M629.58,609.32c0,100.6-81.56,178.21-182.16,178.21S265.26,709.92,265.26,609.32,354,465.7,447.42,488.75c22.95-5,44.52-6.89,64.22-5.76"></path><path class="cls-4 eanXDrHd_4" d="M568.05,743.58S345.33,610.22,442.64,503.32c59-51.47,142.25-3.69,142.25,45.44"></path><path class="cls-5 eanXDrHd_5" d="M568.05,743.58S795.27,610.22,698,503.32c-59-51.47-142.25-3.69-142.25,45.44"></path><style data-made-with="vivus-instant">.eanXDrHd_0{stroke-dasharray:889 891;stroke-dashoffset:890;animation:eanXDrHd_draw 3000ms ease-in-out 0ms forwards;}.eanXDrHd_1{stroke-dasharray:494 496;stroke-dashoffset:495;animation:eanXDrHd_draw 3000ms ease-in-out 0ms forwards;}.eanXDrHd_2{stroke-dasharray:864 866;stroke-dashoffset:865;animation:eanXDrHd_draw 3000ms ease-in-out 0ms forwards;}.eanXDrHd_3{stroke-dasharray:889 891;stroke-dashoffset:890;animation:eanXDrHd_draw 3000ms ease-in-out 0ms forwards;}.eanXDrHd_4{stroke-dasharray:492 494;stroke-dashoffset:493;animation:eanXDrHd_draw 3000ms ease-in-out 0ms forwards;}.eanXDrHd_5{stroke-dasharray:494 496;stroke-dashoffset:495;animation:eanXDrHd_draw 3000ms ease-in-out 0ms forwards;}@keyframes eanXDrHd_draw{100%{stroke-dashoffset:0;}}@keyframes eanXDrHd_fade{0%{stroke-opacity:1;}94.44444444444444%{stroke-opacity:1;}100%{stroke-opacity:0;}}</style></svg>